<?xml version="1.0" encoding="UTF-8"?>
<svg version="1.1" xmlns="http://www.w3.org/2000/svg" width="500" height="500">
<path d="M0 0 C9.32012947 7.52279704 17.39881973 15.42562222 24.74316406 24.90136719 C25.52175781 25.85269531 26.30035156 26.80402344 27.10253906 27.78417969 C33.43127301 35.66486432 38.57149248 44.03983077 43.68847656 52.74511719 C46.52708933 57.56913889 49.4841472 62.30725532 52.49316406 67.02636719 C59.38557751 77.86106262 66.08826434 88.81089007 72.80761719 99.75341797 C75.67247494 104.41278677 78.55003805 109.06423516 81.43066406 113.71386719 C81.95523193 114.56062012 82.4797998 115.40737305 83.02026367 116.27978516 C84.06891563 117.9722267 85.11766173 119.66460992 86.16650391 121.35693359 C88.86024961 125.70413361 91.55156323 130.05283896 94.24316406 134.40136719 C95.32648619 136.15137412 96.40981952 137.90137413 97.49316406 139.65136719 C99.65983073 143.15136719 101.8264974 146.65136719 103.99316406 150.15136719 C104.79717651 151.45013794 104.79717651 151.45013794 105.61743164 152.77514648 C106.70325119 154.52918776 107.78902576 156.28325687 108.87475586 158.03735352 C111.54468636 162.35074879 114.21533762 166.66369394 116.88769531 170.97558594 C124.26129912 182.87530071 131.61394583 194.78778088 138.93847656 206.71777344 C141.25214094 210.48483447 143.57745995 214.24382964 145.92285156 217.99121094 C164.95274994 248.4943099 177.17229547 281.60778798 170.55566406 318.15136719 C165.675305 338.12468852 156.90385933 355.77149863 141.74316406 369.90136719 C141.08316406 369.90136719 140.42316406 369.90136719 139.74316406 369.90136719 C138.2253418 367.69946289 138.2253418 367.69946289 136.42675781 364.57714844 C136.09864609 364.01257431 135.77053436 363.44800018 135.43247986 362.86631775 C134.34171327 360.98602997 133.26139221 359.09993968 132.18066406 357.21386719 C131.41730298 355.89471956 130.65313094 354.57604092 129.88818359 353.2578125 C128.29508802 350.5108172 126.70553975 347.76181657 125.11865234 345.01123047 C121.82824364 339.31233167 118.50467395 333.63293208 115.17630005 327.95614624 C114.46721741 326.74671993 113.75846009 325.53710284 113.05001831 324.32730103 C108.16600422 315.98739688 103.22929385 307.68072328 98.24316406 299.40136719 C92.89345801 290.5183009 87.60641223 281.60045134 82.36816406 272.65136719 C82.01465881 272.04748169 81.66115356 271.44359619 81.29693604 270.82141113 C78.41562009 265.89807706 75.53770631 260.97275638 72.65991211 256.04736328 C70.14757077 251.74777573 67.63387538 247.4489839 65.11816406 243.15136719 C64.58916 242.24754807 64.58916 242.24754807 64.04946899 241.32546997 C58.49865239 231.84662299 52.86806836 222.41795995 47.20019531 213.00854492 C42.35378486 204.95074307 37.59964001 196.84195575 32.87353516 188.71313477 C26.88331576 178.41093913 20.81535657 168.15538659 14.74316406 157.90136719 C12.38814091 153.92270667 10.03420698 149.94340345 7.68066406 145.96386719 C7.1443335 145.05813965 6.60800293 144.15241211 6.05541992 143.21923828 C5.06223275 141.53996683 4.07112533 139.85946286 3.08251953 138.17749023 C2.22310557 136.7169878 1.35802667 135.25979559 0.48583984 133.80688477 C-2.25683594 129.17223163 -2.25683594 129.17223163 -2.25683594 126.46386719 C-1.38847146 124.23868322 -0.41190164 122.20803237 0.68066406 120.08886719 C5.64541583 110.39406101 6.2732797 100.06324879 3.11816406 89.65136719 C-0.60942915 79.65463993 -7.74442468 71.71787616 -17.13183594 66.58886719 C-26.38269421 62.41338252 -36.29046388 61.83107915 -46.03027344 64.72558594 C-56.97864217 68.88465093 -64.57581457 75.6983834 -70.25683594 85.90136719 C-74.91994826 96.35857056 -74.50126799 107.58880299 -70.51464844 118.18261719 C-65.59715877 128.81172528 -57.08478454 135.84191058 -46.26464844 139.96386719 C-39.69786815 142.01065585 -33.75618528 142.01738052 -26.94433594 141.40917969 C-25.87570312 141.31523926 -24.80707031 141.22129883 -23.70605469 141.12451172 C-22.8978125 141.05087402 -22.08957031 140.97723633 -21.25683594 140.90136719 C-20.84957275 141.61043213 -20.44230957 142.31949707 -20.02270508 143.05004883 C-9.90560222 160.66476883 -9.90560222 160.66476883 0.46972656 178.12792969 C3.2576695 182.74288626 6.00053172 187.38438314 8.74316406 192.02636719 C9.28618164 192.94538818 9.82919922 193.86440918 10.38867188 194.8112793 C13.54630618 200.16181561 16.69259695 205.51888924 19.82910156 210.88183594 C21.25869454 213.32590166 22.68834569 215.76993332 24.11816406 218.21386719 C24.47837646 218.82957581 24.83858887 219.44528442 25.2097168 220.07965088 C30.16871579 228.55205806 35.17750302 236.99212684 40.24316406 245.40136719 C45.59298208 254.28436518 50.87991663 263.2022843 56.11816406 272.15136719 C56.47166931 272.75525269 56.82517456 273.35913818 57.18939209 273.98132324 C60.07070803 278.90465731 62.94862181 283.829978 65.82641602 288.75537109 C68.33875735 293.05495863 70.85241762 297.35377105 73.36816406 301.65136719 C73.72183044 302.25557495 74.07549683 302.85978271 74.43988037 303.4822998 C79.91660081 312.83386643 85.46983528 322.13764141 91.06201172 331.4206543 C98.08034388 343.08958738 104.963794 354.83833993 111.81347656 366.60693359 C113.12820571 368.85148763 114.45693963 371.08788337 115.79785156 373.31689453 C116.76078125 374.92685303 116.76078125 374.92685303 117.74316406 376.56933594 C118.60941406 378.00249146 118.60941406 378.00249146 119.49316406 379.46459961 C120.74316406 381.90136719 120.74316406 381.90136719 120.74316406 384.90136719 C97.19696128 395.78256696 72.38149749 397.99410078 47.75097656 389.43652344 C-1.45955922 371.17790012 -22.62682351 324.64696125 -44.83886719 280.84277344 C-67.08433984 237.14753039 -94.94036117 190.70449887 -142.89355469 172.52246094 C-164.97560306 165.55046107 -188.03702685 170.38117643 -208.19824219 180.67480469 C-220.67991138 187.36066898 -233.60437013 196.07767581 -243.52636719 206.22167969 C-245.25683594 207.90136719 -245.25683594 207.90136719 -247.25683594 207.90136719 C-245.65834995 203.53273008 -243.49011985 199.55706937 -241.19433594 195.52636719 C-240.792229 194.81649658 -240.39012207 194.10662598 -239.97583008 193.37524414 C-237.09055375 188.30615 -234.12749884 183.28729392 -231.11035156 178.29541016 C-227.26702577 171.93654072 -223.47939536 165.54504408 -219.69433594 159.15136719 C-219.00090622 157.98038084 -218.30746537 156.80940107 -217.61401367 155.63842773 C-216.19905952 153.24895492 -214.78429622 150.85936921 -213.36962891 148.46972656 C-210.00059516 142.77914937 -206.62851569 137.09037684 -203.25683594 131.40136719 C-201.92348921 129.15137513 -200.5901559 126.90137511 -199.25683594 124.65136719 C-196.59016927 120.15136719 -193.9235026 115.65136719 -191.25683594 111.15136719 C-190.59699707 110.03785889 -189.9371582 108.92435059 -189.25732422 107.77709961 C-187.92247033 105.52459476 -186.5875092 103.27215346 -185.25244141 101.01977539 C-181.94149519 95.43361278 -178.63235247 89.84639825 -175.32714844 84.25683594 C-172.01494974 78.65590301 -168.69302238 73.0608022 -165.36914062 67.46679688 C-163.90537371 64.99963719 -162.44857392 62.5285082 -160.99609375 60.0546875 C-143.10260709 29.58115454 -143.10260709 29.58115454 -133.25683594 17.90136719 C-132.54333984 17.04768555 -132.54333984 17.04768555 -131.81542969 16.17675781 C-97.36276571 -24.47738568 -43.00555893 -33.89486602 0 0 Z " fill="#26BBFC" transform="translate(319.2568359375,63.0986328125)"/>
<path d="M0 0 C1.09376953 0.00974854 2.18753906 0.01949707 3.31445312 0.02954102 C22.94557482 0.4581364 40.12346921 8.38792648 54.6875 21.4375 C55.91146484 22.48357422 55.91146484 22.48357422 57.16015625 23.55078125 C73.67600066 37.92237384 86.01250412 55.60279053 97.31982422 74.19384766 C98.61594295 76.3201117 99.93381404 78.43154343 101.25390625 80.54296875 C102.00452457 81.77748021 102.75334844 83.01308534 103.5 84.25 C104.14582031 85.30832031 104.79164063 86.36664063 105.45703125 87.45703125 C106.95383439 91.08262108 106.58864144 92.66147034 105.6875 96.4375 C104.47924805 99.00439453 104.47924805 99.00439453 102.94921875 101.5703125 C102.38275635 102.5308252 101.81629395 103.49133789 101.23266602 104.48095703 C100.61963623 105.49786621 100.00660645 106.51477539 99.375 107.5625 C98.74198975 108.62710449 98.10897949 109.69170898 97.45678711 110.78857422 C96.15772656 112.97076162 94.85474536 115.15061983 93.54785156 117.328125 C91.88659725 120.10473064 90.24670277 122.8921965 88.6171875 125.6875 C66.62186058 163.2299639 38.85472229 205.52370427 -5.75 217.3125 C-29.99897577 222.62511163 -54.93774306 218.42780398 -76.125 205.578125 C-81.16251098 202.19509066 -85.79380183 198.48210525 -90.3125 194.4375 C-90.93382813 193.89867187 -91.55515625 193.35984375 -92.1953125 192.8046875 C-108.21831614 177.97409343 -118.44342971 155.20204292 -119.3125 133.4375 C-119.35246094 132.468125 -119.39242187 131.49875 -119.43359375 130.5 C-120.11478544 97.16167734 -104.87087656 66.12385176 -82.15234375 42.375 C-81.68554199 41.89289063 -81.21874023 41.41078125 -80.73779297 40.9140625 C-79.29053014 39.41473985 -77.8661247 37.89572894 -76.44140625 36.375 C-56.95571654 15.89288298 -28.79047501 -0.28961099 0 0 Z " fill="#1C75BC" transform="translate(156.3125,239.5625)"/>
<path d="M0 0 C6.53925648 5.6691683 9.2709454 10.6327983 10.41015625 19.3125 C10.76772457 26.35384533 9.07186516 31.82813697 4.5625 37.3125 C-1.00613679 43.22917659 -6.89340274 45.82563244 -14.9375 46.6875 C-23.55742386 45.76393673 -29.57502808 42.75856641 -35.4375 36.3125 C-39.80217038 30.38361249 -41.0235958 24.58008793 -40.4375 17.3125 C-38.5840749 9.74248663 -35.79522767 3.98729976 -29.4375 -0.6875 C-20.46338005 -5.95491823 -8.60409405 -6.10613126 0 0 Z " fill="#23B0FB" transform="translate(299.4375,143.6875)"/>
</svg>
